<?xml version="1.0" encoding="UTF-8"?>
<svg width="410px" height="528px" viewBox="0 0 410 528" version="1.1" xmlns="http://www.w3.org/2000/svg" xmlns:xlink="http://www.w3.org/1999/xlink">
    <title>mlf</title>
    <g id="Page-1" stroke="none" stroke-width="1" fill="none" fill-rule="evenodd">
        <g id="mlf" fill-rule="nonzero">
            <path d="M409.31,268.5 C272.87,308.18 136.44,228.81 0,268.5 L0,516.5 C136.44,476.82 272.87,556.19 409.31,516.5 L409.31,268.5 Z" id="Path" fill="#004AB5"></path>
            <path d="M363.68,115.34 C347.77,111.87 331.63,115.01 316.61,120.34 C316.24,118.11 315.79,114.42 315.45,111.93 C305.27,112.26 298.71,116.78 290.18,124.3 C289.27,122.14 288.13,119.76 287.12,117.3 C277.17,123.55 268.43,151.62 260.12,145.35 C252.7,139.78 285.55,114.86 284.01,92.88 C280.337353,93.7925648 276.512385,93.911882 272.79,93.23 C277.95,79.93 278.63,64.59 275.39,55.23 C267.39,60.17 258.57,64.49 248.64,69.62 C250.39,52.45 247.33,37 241.64,27.04 C237.49,32.23 232.22,38.59 227.02,42.69 C224.954622,26.0570446 216.69561,10.8137578 203.89,-1.42108547e-14 C198.809142,11.6172678 196.550889,24.2723992 197.3,36.93 C194.25,32.36 188.3,29.52 182.1,28.72 C184.82,39.06 187.44,48.15 190.22,56.95 C186.13,51.84 177.78,48.26 170.45,47.75 C175.23,59.51 173.53,74.16 182.62,83.25 C178.97,82.51 173.75,81.37 170.75,80.69 C167.62,104.69 197.75,131.21 189.37,136.32 C179.14,142.55 178.43,105.7 149.04,97.22 C148.79,100.03 148.53,103.69 148.04,106.68 C137.75,95.63 119.29,91.31 106.23,86.6 C106.74,89.83 107.42,93.75 108.46,98.71 C100.92,92.71 86.35,93.98 70.46,89.58 C74.01,103.12 82.19,120.16 98.46,126.58 C93.96,127.43 86.74,130.18 81.98,130.69 C93.73,140.24 95.61,145.52 110.98,150.8 C103.98,153.01 97.86,154.89 90.16,156.74 C105.83,194.08 144.45,178.17 155.23,199.89 C133.38,196.89 116.7,205.09 103.8,222.97 C117,228.61 143.52,230.88 155.39,227.92 C154.7,230.59 153.39,232.58 151.02,236.16 C166.94,237.23 190.61,231.29 203.25,226.28 C202.286712,228.252418 201.201269,230.162798 200,232 C196.76,237.2 194.37,238.14 190.76,239 C188.35,239.57 188.62,251.74 192.33,251.601199 C201.08,251 207.82,237.99 209.89,227.37 C218.47,234.99 234.4,243.61 243.89,247.45 C244.31,242.71 244.57,235.64 244.57,235.64 C251.13,240.88 285.3,249.5 299.84,244.5 C296.43,232.91 283.71,218.6 265.65,214.91 C281.96,204.68 301.7,220.91 325.78,199.06 C321.84,197.33 315.5,194.29 312.64,193.06 C324.83,187.87 336.76,174.35 340.27,164.54 C334.98,165.72 326.81,166.17 321.65,164.43 C342.59,148 354.52,137.26 363.68,115.34 Z" id="Path" fill="#E8312D"></path>
            <polygon id="Path" fill="#FFFFFF" points="107.48 400.57 90.55 400.57 90.55 468.59 132.31 468.59 132.31 453.35 107.48 453.35"></polygon>
            <polygon id="Path" fill="#FFFFFF" points="160.18 441.87 183.3 441.87 183.3 426.88 160.18 426.88 160.18 415.82 185.97 415.82 185.97 400.57 143.25 400.57 143.25 468.59 185.97 468.59 185.97 453.35 160.18 453.35"></polygon>
            <polygon id="Path" fill="#FFFFFF" points="275.03 468.59 291.96 468.59 291.96 441.87 315.07 441.87 315.07 426.88 291.96 426.88 291.96 415.82 317.34 415.82 317.34 400.57 275.03 400.57"></polygon>
            <path d="M226.28,400.58 L195,466.63 L195,468.63 L213.27,468.63 L216.89,460.07 L244.16,460.07 L247.78,468.63 L266,468.63 L266,466.63 L234.68,400.58 L226.28,400.58 Z M222.28,446.46 L230.54,427.81 L238.8,446.46 L222.28,446.46 Z" id="Shape" fill="#FFFFFF"></path>
            <polygon id="Path" fill="#FFFFFF" points="95.26 384.46 112.35 384.46 112.35 316.44 106.77 316.44 79.25 346.27 51.73 316.44 46.15 316.44 46.15 384.46 63.24 384.46 63.24 352.11 78.26 367.91 80.24 367.91 95.26 352.11"></polygon>
            <path d="M152.66,316.44 L121.35,382.49 L121.35,384.49 L139.63,384.49 L143.25,375.93 L170.52,375.93 L174.14,384.49 L192.41,384.49 L192.41,382.49 L161.1,316.44 L152.66,316.44 Z M148.66,362.32 L156.92,343.68 L165.18,362.32 L148.66,362.32 Z" id="Shape" fill="#FFFFFF"></path>
            <path d="M218.34,366.36 L232.43,366.36 C245.132549,366.36 255.43,356.062549 255.43,343.36 L255.43,339.36 C255.43,326.657451 245.132549,316.36 232.43,316.36 L201.43,316.36 L201.43,384.36 L218.36,384.36 L218.34,366.36 Z M218.34,331.78 L229.57,331.78 C234.157202,331.78551 237.87449,335.502798 237.88,340.09 L237.88,343.57 C237.88,348.161107 234.161103,351.884482 229.57,351.89 L218.34,351.89 L218.34,331.78 Z" id="Shape" fill="#FFFFFF"></path>
            <polygon id="Path" fill="#FFFFFF" points="308.09 369.21 283.26 369.21 283.26 316.44 266.33 316.44 266.33 384.46 308.09 384.46"></polygon>
            <polygon id="Path" fill="#FFFFFF" points="335.96 357.73 359.08 357.73 359.08 342.75 335.96 342.75 335.96 331.68 361.75 331.68 361.75 316.44 319.03 316.44 319.03 384.46 361.75 384.46 361.75 369.21 335.96 369.21"></polygon>
        </g>
    </g>
</svg>