<?xml version="1.0" encoding="UTF-8"?> <svg xmlns="http://www.w3.org/2000/svg" xmlns:xlink="http://www.w3.org/1999/xlink" id="Layer_1" data-name="Layer 1" viewBox="0 0 144.08 154.74"><defs><style>.cls-1{fill:none;clip-rule:evenodd;}.cls-2{clip-path:url(#clip-path);}.cls-3{fill:#4ebba1;}.cls-4{fill:#58dbb9;fill-rule:evenodd;}.cls-5{clip-path:url(#clip-path-2);}</style><clipPath id="clip-path"><path class="cls-1" d="M60.6-195.9h1.64c.43.09.85.16,1.27.27a8.54,8.54,0,0,1,6.42,8.32v37.41H80.82v-.45c0-5.47,0-10.94,0-16.41a10.55,10.55,0,0,1,.09-1.49,8.4,8.4,0,0,1,10.39-6.87,8.38,8.38,0,0,1,6.3,8.19v41.12h11v-.47q0-10.62,0-21.25a9.51,9.51,0,0,1,.17-1.85,8.55,8.55,0,0,1,7.72-6.82,8.51,8.51,0,0,1,8.57,5.38,20.41,20.41,0,0,1,.61,2.36v50.35c0,.25-.1.5-.14.75a8.55,8.55,0,0,1-10.22,6.81A8.53,8.53,0,0,1,108.56-99v-21.83h-11v.51q0,20.26,0,40.53a9.25,9.25,0,0,1-.09,1.49,8.39,8.39,0,0,1-11.19,6.6,8.4,8.4,0,0,1-5.49-8v-65.23H69.93v85.59a8.52,8.52,0,0,1-6.71,8.46c-.33.08-.65.14-1,.2H60.6c-.33-.06-.66-.1-1-.18a8.53,8.53,0,0,1-6.77-8.45q0-15.42,0-30.84v-.48H41.21v10.94a10.39,10.39,0,0,1-.09,1.37,8.41,8.41,0,0,1-10.4,6.87,8.38,8.38,0,0,1-6.29-8.2v-51.78H12.94v32.35a9.79,9.79,0,0,1-.15,1.71,8.52,8.52,0,0,1-7.78,7,8.53,8.53,0,0,1-8.69-5.8c-.21-.63-.31-1.29-.46-1.94v-50.35l.15-.76A8.54,8.54,0,0,1,6.22-156a8.53,8.53,0,0,1,6.72,8.46v11.16H24.43v-30.36A10.14,10.14,0,0,1,24.5-168a8.37,8.37,0,0,1,10.41-7.13,8.38,8.38,0,0,1,6.3,8.19v71.32H52.85v-91.65a8.47,8.47,0,0,1,5.49-8.06A19.19,19.19,0,0,1,60.6-195.9Z"></path></clipPath><clipPath id="clip-path-2"><path class="cls-1" d="M71.89,4.76h1.64c.42.09.85.16,1.26.27a8.52,8.52,0,0,1,6.42,8.32q0,18.46,0,36.95v.46H92.1V50.3q0-8.2,0-16.41a10.5,10.5,0,0,1,.09-1.48,8.39,8.39,0,0,1,16.68,1.31q0,20.33,0,40.65v.48h11v-.47q0-10.63,0-21.26a10.51,10.51,0,0,1,.16-1.85,8.53,8.53,0,0,1,16.3-1.43,20.41,20.41,0,0,1,.61,2.36v50.34c-.05.25-.1.51-.14.76a8.54,8.54,0,0,1-16.94-1.65V79.82h-11v.52q0,20.26,0,40.53a9.25,9.25,0,0,1-.09,1.49A8.4,8.4,0,0,1,92.1,121V55.72H81.21v85.6a8.52,8.52,0,0,1-6.71,8.46l-1,.2H71.89c-.33-.06-.66-.11-1-.18a8.54,8.54,0,0,1-6.78-8.45V110H52.5v.47q0,5.24,0,10.47a9.06,9.06,0,0,1-.09,1.38A8.39,8.39,0,0,1,35.72,121q0-25.65,0-51.31v-.47H24.23v.5q0,15.93,0,31.85a9.67,9.67,0,0,1-.14,1.7A8.53,8.53,0,0,1,7.6,104.49c-.2-.63-.3-1.3-.45-1.95V52.2c0-.26.1-.51.14-.76a8.54,8.54,0,0,1,16.94,1.65V64.26H35.72v-.49q0-14.94,0-29.87c0-.41,0-.83.06-1.23A8.39,8.39,0,0,1,52.5,33.73v71.32H64.13V13.39a8.5,8.5,0,0,1,5.5-8.06A20.75,20.75,0,0,1,71.89,4.76Z"></path></clipPath></defs><title>logo-icon</title><g class="cls-2"><rect class="cls-3" x="-125.14" y="-124.65" width="306.67" height="133.33" transform="translate(-25.21 -21.86) rotate(30)"></rect></g><path class="cls-4" d="M71.89,4.76h1.64c.42.09.85.16,1.26.27a8.52,8.52,0,0,1,6.42,8.32q0,18.46,0,36.95v.46H92.1V50.3q0-8.2,0-16.41a10.5,10.5,0,0,1,.09-1.48,8.39,8.39,0,0,1,16.68,1.31q0,20.33,0,40.65v.48h11v-.47q0-10.63,0-21.26a10.51,10.51,0,0,1,.16-1.85,8.53,8.53,0,0,1,16.3-1.43,20.41,20.41,0,0,1,.61,2.36v50.34c-.05.25-.1.51-.14.76a8.54,8.54,0,0,1-16.94-1.65V79.82h-11v.52q0,20.26,0,40.53a9.25,9.25,0,0,1-.09,1.49A8.4,8.4,0,0,1,92.1,121V55.72H81.21v85.6a8.52,8.52,0,0,1-6.71,8.46l-1,.2H71.89c-.33-.06-.66-.11-1-.18a8.54,8.54,0,0,1-6.78-8.45V110H52.5v.47q0,5.24,0,10.47a9.06,9.06,0,0,1-.09,1.38A8.39,8.39,0,0,1,35.72,121q0-25.65,0-51.31v-.47H24.23v.5q0,15.93,0,31.85a9.67,9.67,0,0,1-.14,1.7A8.53,8.53,0,0,1,7.6,104.49c-.2-.63-.3-1.3-.45-1.95V52.2c0-.26.1-.51.14-.76a8.54,8.54,0,0,1,16.94,1.65V64.26H35.72v-.49q0-14.94,0-29.87c0-.41,0-.83.06-1.23A8.39,8.39,0,0,1,52.5,33.73v71.32H64.13V13.39a8.5,8.5,0,0,1,5.5-8.06A20.75,20.75,0,0,1,71.89,4.76Z"></path><g class="cls-5"><rect class="cls-3" x="-113.85" y="76.01" width="306.67" height="133.33" transform="translate(76.63 -0.63) rotate(30)"></rect></g></svg> 